<?xml version="1.0" encoding="UTF-8"?>
<svg version="1.1" xmlns="http://www.w3.org/2000/svg" width="493" height="376">
<path d="M0 0 C162.69 0 325.38 0 493 0 C493 124.08 493 248.16 493 376 C330.31 376 167.62 376 0 376 C0 251.92 0 127.84 0 0 Z " fill="#F9F9F9" transform="translate(0,0)"/>
<path d="M0 0 C127.42529741 0 127.42529741 0 143.25 5.6875 C143.97832031 5.94096191 144.70664063 6.19442383 145.45703125 6.45556641 C157.24203664 10.72634988 167.55832846 16.7201286 177 25 C177.73347656 25.59039062 178.46695313 26.18078125 179.22265625 26.7890625 C193.70276645 38.79197572 204.19909956 55.88645777 209 74 C209.29777344 75.07894531 209.59554687 76.15789062 209.90234375 77.26953125 C216.15617298 103.40880825 211.11891991 129.21758832 198.125 152.3359375 C183.39849942 175.71425717 159.87521585 192.22406474 133.0078125 198.41015625 C127.69808782 199.45141395 122.35990608 200.26517417 117 201 C118.66295599 204.82479878 121.15842224 207.90025267 123.75 211.125 C124.74532371 212.37718144 125.74008787 213.6298078 126.734375 214.8828125 C127.26353516 215.54829102 127.79269531 216.21376953 128.33789062 216.89941406 C131.25028516 220.58011949 134.123088 224.29154221 137 228 C141.15175007 233.34518174 145.31307029 238.68232765 149.5 244 C156.64596467 253.07784108 163.72424735 262.20835724 170.81152344 271.33203125 C177.1247921 279.45835868 183.44362114 287.5796799 189.81054688 295.6640625 C194.22972218 301.28023258 198.61112279 306.92564231 202.98876953 312.57421875 C206.83420206 317.52831212 210.73700536 322.42367173 214.7421875 327.25 C216 329 216 329 216 331 C209.75645727 331.27328638 203.51643787 331.47212694 197.26831055 331.60424805 C195.14659965 331.65934693 193.02530233 331.7342553 190.9050293 331.82983398 C173.31838325 332.60237399 173.31838325 332.60237399 167.71069336 328.7265625 C165.40275987 325.92704751 163.67900687 323.2087625 162 320 C161.18618975 318.85213533 160.35536483 317.71580379 159.49609375 316.6015625 C158.81675781 315.61929687 158.13742188 314.63703125 157.4375 313.625 C153.11776643 307.45898552 148.58213096 301.4728974 144 295.5 C139.5748814 289.72819499 135.17981547 283.95238851 131 278 C126.87902189 272.13332365 122.55020304 266.43870284 118.1875 260.75 C112.64872171 253.52685443 107.23889485 246.23292407 101.94750977 238.82714844 C96.98930292 231.91798332 91.83603009 225.1632666 86.64257812 218.4296875 C86.01029297 217.60726562 85.37800781 216.78484375 84.7265625 215.9375 C84.17564941 215.22464844 83.62473633 214.51179687 83.05712891 213.77734375 C79.94984196 209.58217447 76.99381824 205.27688319 74 201 C61.13 200.67 48.26 200.34 35 200 C35 243.56 35 287.12 35 332 C23.45 332 11.9 332 0 332 C0 222.44 0 112.88 0 0 Z " fill="#030303" transform="translate(3,22)"/>
<path d="M0 0 C5.62131519 5.62131519 5.62131519 5.62131519 7.47265625 8.390625 C7.89071533 9.0084082 8.30877441 9.62619141 8.73950195 10.26269531 C9.17609131 10.91850586 9.61268066 11.57431641 10.0625 12.25 C11.0354678 13.68817062 12.0094601 15.12564857 12.984375 16.5625 C13.48259766 17.29855469 13.98082031 18.03460937 14.49414062 18.79296875 C16.89237075 22.3078845 19.35097982 25.77924427 21.8125 29.25 C26.22840673 35.48608851 30.62192297 41.73729247 35 48 C41.30686147 57.01880327 47.64646271 66.01403996 54 75 C60.95267995 84.83334186 67.88239169 94.68212824 74.78417969 104.55126953 C80.49790894 112.71846719 86.24560744 120.86142472 92 129 C98.95267995 138.83334186 105.88239169 148.68212824 112.78417969 158.55126953 C118.49790894 166.71846719 124.24560744 174.86142472 130 183 C136.95267995 192.83334186 143.88239169 202.68212824 150.78417969 212.55126953 C156.00174326 220.00924857 161.24711149 227.44730785 166.50146484 234.87939453 C168.0815504 237.11540352 169.66010678 239.35248556 171.23828125 241.58984375 C171.77372559 242.34885986 172.30916992 243.10787598 172.86083984 243.88989258 C173.8756069 245.32844823 174.89026416 246.76708135 175.90478516 248.20581055 C176.36804199 248.86234619 176.83129883 249.51888184 177.30859375 250.1953125 C177.90885376 251.04633545 177.90885376 251.04633545 178.52124023 251.91455078 C180.67275878 254.94877093 182.83801862 257.97322606 185 261 C185.495 141.705 185.495 141.705 186 20 C197.55 20 209.1 20 221 20 C221 136.16 221 252.32 221 372 C217.51050002 368.51050002 214.84331357 365.05717695 212.125 361 C211.14798577 359.56062035 210.17007839 358.12184665 209.19140625 356.68359375 C208.67465332 355.92288574 208.15790039 355.16217773 207.62548828 354.37841797 C204.80407502 350.25011999 201.93327729 346.15655704 199.0625 342.0625 C198.47049805 341.21776123 197.87849609 340.37302246 197.26855469 339.50268555 C191.53110701 331.32188733 185.76868414 323.1587882 180 315 C173.04732005 305.16665814 166.11760831 295.31787176 159.21582031 285.44873047 C153.50209106 277.28153281 147.75439256 269.13857528 142 261 C135.04579669 251.16450362 128.11416884 241.31383387 121.21142578 231.44213867 C117.48751174 226.11867389 113.75045821 220.8047925 110 215.5 C105.64892398 209.34567055 101.31910656 203.17680583 97 197 C90.69302078 187.98127855 84.35353778 178.98596073 78 170 C71.05307367 160.17479563 64.12770774 150.33511648 57.23339844 140.47290039 C52.81239595 134.15165323 48.36959887 127.84611011 43.90625 121.5546875 C43.22175781 120.58789062 43.22175781 120.58789062 42.5234375 119.6015625 C42.13075684 119.04807129 41.73807617 118.49458008 41.33349609 117.92431641 C39.519955 115.30726571 37.76616801 112.64925201 36 110 C35.67 189.86 35.34 269.72 35 352 C23.45 352 11.9 352 0 352 C0 235.84 0 119.68 0 0 Z " fill="#040404" transform="translate(268,2)"/>
<path d="M0 0 C20.8828125 -0.0928125 20.8828125 -0.0928125 42.1875 -0.1875 C48.74467896 -0.22846802 48.74467896 -0.22846802 55.43432617 -0.27026367 C60.83459473 -0.28381348 60.83459473 -0.28381348 63.37471008 -0.28633118 C65.12249554 -0.29089267 66.87027246 -0.30134821 68.61799622 -0.31672668 C90.19127567 -0.49681503 108.9767313 3.53490231 125.1875 18.75 C138.16156075 32.3268959 143.53749458 50.25279142 143.35327148 68.7434082 C142.86452153 84.178447 137.53880223 98.9046269 128 111 C127.32710937 111.91845703 127.32710937 111.91845703 126.640625 112.85546875 C116.96264696 125.29451699 101.46644273 133.05914289 86 135 C79.41285165 135.35876719 72.80489823 135.23365592 66.2109375 135.1953125 C64.51342907 135.19236667 62.81591882 135.19032956 61.1184082 135.18920898 C54.87057751 135.17878419 48.62278587 135.15086175 42.375 135.125 C21.399375 135.063125 21.399375 135.063125 0 135 C0 90.45 0 45.9 0 0 Z " fill="#F9F9F9" transform="translate(38,55)"/>
</svg>
