<?xml version="1.0" encoding="UTF-8"?>
<svg xmlns="http://www.w3.org/2000/svg" xmlns:xlink="http://www.w3.org/1999/xlink" width="30px" height="30px" viewBox="0 0 30 30" version="1.1">
<g id="surface1">
<path style=" stroke:none;fill-rule:nonzero;fill:rgb(0%,0%,0%);fill-opacity:1;" d="M 16.679688 15.378906 L 16.679688 20.398438 L 17.640625 20.398438 L 17.652344 16.9375 L 17.671875 13.476562 L 20.214844 17.09375 C 21.613281 19.078125 22.804688 20.765625 22.867188 20.839844 C 22.972656 20.964844 22.972656 20.832031 22.960938 15.960938 L 22.949219 10.949219 L 22.457031 10.933594 L 21.960938 10.914062 L 21.949219 14.371094 L 21.929688 17.824219 L 20.039062 15.136719 C 19.003906 13.660156 17.820312 11.980469 17.417969 11.40625 L 16.679688 10.363281 Z M 16.679688 15.378906 "/>
<path style=" stroke:none;fill-rule:nonzero;fill:rgb(0%,0%,0%);fill-opacity:1;" d="M 9.121094 15.660156 L 9.121094 20.398438 L 10.078125 20.398438 L 10.078125 16.679688 L 11.21875 16.679688 L 13.992188 20.398438 L 15.300781 20.398438 L 14.207031 19.003906 C 13.609375 18.238281 12.960938 17.410156 12.769531 17.164062 C 12.574219 16.925781 12.421875 16.699219 12.421875 16.675781 C 12.421875 16.644531 12.496094 16.621094 12.59375 16.621094 C 12.871094 16.621094 13.46875 16.410156 13.792969 16.207031 C 14.152344 15.972656 14.644531 15.457031 14.808594 15.144531 C 15.246094 14.28125 15.222656 13.164062 14.742188 12.34375 C 14.527344 11.976562 13.933594 11.441406 13.53125 11.25 C 12.929688 10.96875 12.539062 10.921875 10.757812 10.921875 L 9.121094 10.921875 Z M 12.953125 11.980469 C 13.363281 12.113281 13.753906 12.460938 13.960938 12.886719 C 14.105469 13.1875 14.128906 13.296875 14.128906 13.769531 C 14.128906 14.460938 13.980469 14.820312 13.53125 15.226562 C 13.042969 15.671875 12.828125 15.71875 11.335938 15.71875 L 10.078125 15.71875 L 10.078125 11.878906 L 11.363281 11.878906 C 12.394531 11.878906 12.707031 11.898438 12.953125 11.980469 Z M 12.953125 11.980469 "/>
</g>
</svg>
